<?xml version="1.0" standalone="no"?>
<!DOCTYPE svg PUBLIC "-//W3C//DTD SVG 20010904//EN"
 "http://www.w3.org/TR/2001/REC-SVG-20010904/DTD/svg10.dtd">
<svg version="1.0" xmlns="http://www.w3.org/2000/svg"
 width="257.000000pt" height="103.000000pt" viewBox="0 0 257.000000 103.000000"
 preserveAspectRatio="xMidYMid meet">
<metadata>
Created by potrace 1.16, written by Peter Selinger 2001-2019
</metadata>
<g transform="translate(0.000000,103.000000) scale(0.100000,-0.100000)"
fill="#000000" stroke="none">
<path d="M1425 924 c-68 -80 -90 -114 -91 -136 0 -18 -7 -34 -18 -40 -19 -11
-17 -12 -113 75 -54 48 -79 58 -89 32 -5 -13 -8 -13 -20 0 -8 8 -20 12 -27 10
-140 -43 -244 -80 -254 -89 -8 -8 -10 -33 -5 -86 6 -68 9 -75 32 -81 17 -5 6
-7 -35 -8 -33 -1 -69 -4 -81 -7 -18 -5 -22 0 -28 34 -8 51 -59 119 -116 154
-130 80 -361 50 -542 -70 -21 -13 -38 -32 -38 -41 0 -9 29 -63 64 -121 58 -96
66 -105 92 -103 28 2 31 -2 124 -214 52 -119 102 -220 110 -226 17 -10 174 34
206 58 18 13 17 26 -13 145 l-6 25 21 -26 c12 -15 37 -34 56 -43 43 -20 145
-21 193 -1 45 19 42 19 53 -10 11 -29 17 -29 135 -12 l80 12 3 73 c2 39 5 72
8 72 2 0 77 -36 165 -81 89 -44 171 -79 183 -77 15 2 22 11 24 30 l3 28 109 0
c60 0 116 3 126 7 9 3 40 55 68 115 l52 109 53 -128 c78 -189 65 -176 174
-168 145 12 153 18 117 96 l-19 44 33 17 c58 30 61 38 44 135 -15 86 -15 87 6
104 34 29 49 24 42 -13 -18 -108 -28 -210 -20 -218 16 -16 197 -30 211 -17 6
7 19 80 27 162 9 83 23 207 32 276 15 114 15 128 1 156 -17 32 -70 63 -109 63
-34 0 -87 -36 -94 -64 -6 -25 -6 -25 -38 -9 -47 25 -198 30 -285 8 -39 -9 -75
-15 -82 -13 -6 2 -21 28 -33 58 -16 40 -28 56 -44 58 -18 3 -31 -16 -93 -140
-39 -79 -73 -145 -75 -147 -3 -3 -18 10 -34 27 -16 18 -48 41 -71 51 l-42 19
51 26 c33 17 52 33 52 44 -1 28 -103 167 -125 170 -15 2 -44 -26 -110 -104z
m531 -264 c146 -351 186 -451 183 -455 -2 -1 -29 -5 -59 -6 l-54 -4 -66 149
c-58 134 -68 150 -94 157 -16 5 -34 5 -39 2 -5 -3 -33 -56 -62 -118 -29 -62
-60 -115 -70 -119 -17 -6 -125 -9 -125 -2 0 26 54 113 98 158 54 55 55 58 42
83 -13 25 -9 36 69 192 46 94 86 162 91 157 5 -5 43 -92 86 -194z m316 160
c42 -12 78 -51 78 -85 0 -32 -53 -99 -116 -148 l-55 -42 5 -45 c4 -25 9 -68
12 -96 l7 -52 -33 -7 c-17 -4 -36 -3 -41 2 -5 5 -23 65 -40 134 -49 202 -48
200 -67 197 -12 -2 -20 12 -33 59 l-17 63 36 9 c85 22 205 27 264 11z m-1241
-102 c1 -98 9 -100 65 -20 27 39 53 72 59 72 12 0 105 -91 105 -103 0 -5 -34
-44 -75 -87 l-76 -77 63 -24 c42 -16 78 -38 109 -69 30 -30 62 -50 95 -61 46
-14 49 -17 52 -53 2 -21 1 -44 -1 -51 -4 -8 -62 16 -184 76 -98 49 -179 89
-180 89 -2 0 -3 -42 -3 -94 l0 -93 -31 -7 c-63 -12 -69 -10 -69 35 0 22 7 65
16 94 17 60 8 117 -26 165 -11 16 -20 54 -25 108 -7 76 -9 82 -27 76 -16 -5
-19 -2 -16 17 2 18 14 27 58 40 88 27 90 27 91 -33z m-483 0 c107 -72 98 -204
-23 -316 l-53 -50 19 -77 c11 -42 24 -96 28 -119 l8 -43 -45 -17 c-25 -9 -49
-13 -54 -8 -5 5 -53 109 -108 233 -58 130 -105 223 -112 223 -7 -1 -20 -5 -29
-9 -13 -5 -24 7 -48 48 -17 30 -31 61 -31 70 0 18 82 60 160 82 35 9 90 14
151 12 85 -2 100 -5 137 -29z m1032 -17 c54 -28 49 -47 -30 -126 -38 -38 -70
-73 -70 -77 0 -10 61 10 80 27 25 22 43 19 75 -15 37 -39 29 -54 -48 -94 -73
-37 -173 -42 -227 -10 -50 29 -80 78 -80 131 0 76 33 129 105 166 43 23 151
22 195 -2z m906 -68 c-3 -43 -11 -129 -18 -190 l-11 -113 -56 6 c-31 4 -57 8
-59 9 -2 2 4 53 12 114 20 140 20 161 1 161 -8 0 -15 6 -15 13 0 26 27 48 75
62 82 22 79 25 71 -62z m-1607 -108 c59 -30 78 -124 40 -202 -53 -110 -204
-144 -273 -62 -64 76 -32 199 69 260 37 23 124 25 164 4z"/>
<path d="M409 600 c-15 -9 -14 -17 10 -95 14 -46 29 -85 32 -85 14 0 61 44 75
72 18 35 12 70 -16 98 -21 21 -73 26 -101 10z"/>
</g>
</svg>
